<svg xmlns="http://www.w3.org/2000/svg" xmlns:xlink="http://www.w3.org/1999/xlink" width="4096" zoomAndPan="magnify" viewBox="0 0 3072 3071.999987" height="4096" preserveAspectRatio="xMidYMid meet" version="1.0"><defs><filter x="0%" y="0%" width="100%" height="100%" id="3eef52f992"><feColorMatrix values="0 0 0 0 1 0 0 0 0 1 0 0 0 0 1 0 0 0 1 0" color-interpolation-filters="sRGB"/></filter><clipPath id="7908893b3f"><path d="M 13.695312 13.695312 L 3058.304688 13.695312 L 3058.304688 3058.304688 L 13.695312 3058.304688 Z M 13.695312 13.695312 " clip-rule="nonzero"/></clipPath><clipPath id="6a83e09925"><path d="M 1536 13.695312 C 695.253906 13.695312 13.695312 695.253906 13.695312 1536 C 13.695312 2376.746094 695.253906 3058.304688 1536 3058.304688 C 2376.746094 3058.304688 3058.304688 2376.746094 3058.304688 1536 C 3058.304688 695.253906 2376.746094 13.695312 1536 13.695312 Z M 1536 13.695312 " clip-rule="nonzero"/></clipPath><mask id="1ea7680c06"><g filter="url(#3eef52f992)"><rect x="-307.2" width="3686.4" fill="#000000" y="-307.199999" height="3686.399984" fill-opacity="0.26"/></g></mask><clipPath id="9acfb1ab90"><path d="M 0.761719 1.097656 L 2360.5625 1.097656 L 2360.5625 2360.902344 L 0.761719 2360.902344 Z M 0.761719 1.097656 " clip-rule="nonzero"/></clipPath><clipPath id="9f670caccf"><path d="M 1180.664062 1.097656 C 529.019531 1.097656 0.761719 529.359375 0.761719 1181 C 0.761719 1832.640625 529.019531 2360.902344 1180.664062 2360.902344 C 1832.304688 2360.902344 2360.5625 1832.640625 2360.5625 1181 C 2360.5625 529.359375 1832.304688 1.097656 1180.664062 1.097656 Z M 1180.664062 1.097656 " clip-rule="nonzero"/></clipPath><clipPath id="50aa1a49a1"><rect x="0" width="2361" y="0" height="2362"/></clipPath><clipPath id="571e31d1e2"><path d="M 537.601562 520.9375 L 2567.722656 520.9375 L 2567.722656 2551.0625 L 537.601562 2551.0625 Z M 537.601562 520.9375 " clip-rule="nonzero"/></clipPath><clipPath id="a5c5fc36b3"><path d="M 1552.664062 520.9375 C 992.058594 520.9375 537.601562 975.398438 537.601562 1536 C 537.601562 2096.601562 992.058594 2551.0625 1552.664062 2551.0625 C 2113.265625 2551.0625 2567.722656 2096.601562 2567.722656 1536 C 2567.722656 975.398438 2113.265625 520.9375 1552.664062 520.9375 Z M 1552.664062 520.9375 " clip-rule="nonzero"/></clipPath></defs><g clip-path="url(#7908893b3f)"><g clip-path="url(#6a83e09925)"><path fill="#3e6cf3" d="M 13.695312 13.695312 L 3058.304688 13.695312 L 3058.304688 3058.304688 L 13.695312 3058.304688 Z M 13.695312 13.695312 " fill-opacity="1" fill-rule="nonzero"/></g></g><g mask="url(#1ea7680c06)"><g transform="matrix(1, 0, 0, 1, 372, 355)"><g clip-path="url(#50aa1a49a1)"><g clip-path="url(#9acfb1ab90)"><g clip-path="url(#9f670caccf)"><path fill="#000000" d="M 0.761719 1.097656 L 2360.5625 1.097656 L 2360.5625 2360.902344 L 0.761719 2360.902344 Z M 0.761719 1.097656 " fill-opacity="1" fill-rule="nonzero"/></g></g></g></g></g><g clip-path="url(#571e31d1e2)"><g clip-path="url(#a5c5fc36b3)"><path fill="#3e6cf3" d="M 537.601562 520.9375 L 2567.722656 520.9375 L 2567.722656 2551.0625 L 537.601562 2551.0625 Z M 537.601562 520.9375 " fill-opacity="1" fill-rule="nonzero"/></g></g></svg>